<svg width="300" height="100" viewBox="0 0 300 100" fill="none" xmlns="http://www.w3.org/2000/svg">
<path d="M53.5175 71.0111H63.2745V47.3155L49.3359 36.8615V66.8295C49.3359 69.1433 51.2107 71.0111 53.5175 71.0111Z" fill="#4285F4"/>
<path d="M96.7274 71.0111H106.484C108.798 71.0111 110.666 69.1364 110.666 66.8295V36.8615L96.7274 47.3155" fill="#34A853"/>
<path d="M96.7274 29.1954V47.3155L110.666 36.8615V31.2862C110.666 26.115 104.763 23.1669 100.63 26.2683" fill="#FBBC05"/>
<path d="M63.2745 47.3155L63.2742 29.1953L80.0005 41.74L96.7274 29.1954V47.3155L80.0005 59.8602" fill="#EA4335"/>
<path d="M49.3359 31.2862V36.8615L63.2745 47.3155L63.2742 29.1953L59.3717 26.2683C55.232 23.1669 49.3359 26.115 49.3359 31.2862Z" fill="#C5221F"/>
<path d="M156.714 65.6328C153.726 65.6328 150.973 64.9077 148.458 63.4577C145.943 62.0077 143.945 60.0101 142.466 57.4652C140.986 54.9202 140.246 52.1089 140.246 49.0312C140.246 45.9536 140.986 43.1423 142.466 40.5973C143.945 38.0523 145.943 36.0548 148.458 34.6048C150.973 33.1547 153.726 32.4297 156.714 32.4297C159.052 32.4297 161.242 32.844 163.284 33.6726C165.355 34.5012 167.057 35.6701 168.389 37.1793L165.681 39.8871C164.675 38.6442 163.388 37.6972 161.819 37.0462C160.251 36.3655 158.564 36.0252 156.759 36.0252C154.51 36.0252 152.409 36.5727 150.456 37.6676C148.532 38.7329 146.978 40.257 145.795 42.2397C144.641 44.1928 144.064 46.4567 144.064 49.0312C144.064 51.6058 144.641 53.8844 145.795 55.8672C146.978 57.8203 148.547 59.3443 150.5 60.4392C152.453 61.5046 154.539 62.0373 156.759 62.0373C158.889 62.0373 160.665 61.7117 162.085 61.0607C163.536 60.3801 164.778 59.4923 165.814 58.3973C166.584 57.5687 167.205 56.5774 167.679 55.4233C168.152 54.2396 168.448 52.9375 168.566 51.517H156.803V48.0103H172.073C172.221 48.8389 172.295 49.6083 172.295 50.3185C172.295 52.2716 171.984 54.1804 171.363 56.0447C170.741 57.8795 169.75 59.4923 168.389 60.8831C165.459 64.0496 161.568 65.6328 156.714 65.6328Z" fill="#55585D"/>
<path d="M176.757 42.2841H180.352V45.6133H180.53C181.181 44.4591 182.157 43.4974 183.459 42.728C184.762 41.9586 186.138 41.5739 187.588 41.5739C189.245 41.5739 190.68 41.9734 191.893 42.7724C193.136 43.5714 194.024 44.6367 194.557 45.9684C195.356 44.6367 196.406 43.5714 197.708 42.7724C199.04 41.9734 200.579 41.5739 202.325 41.5739C204.929 41.5739 206.882 42.3729 208.184 43.9709C209.516 45.5393 210.182 47.6848 210.182 50.4073V64.9225H206.453V50.9844C206.453 48.8833 206.024 47.3592 205.166 46.4123C204.308 45.4653 203.035 44.9918 201.348 44.9918C200.224 44.9918 199.203 45.3173 198.285 45.9684C197.368 46.6194 196.643 47.4924 196.11 48.5873C195.607 49.6823 195.356 50.866 195.356 52.1385V64.9225H191.583V51.0287C191.583 48.8981 191.154 47.3592 190.295 46.4123C189.437 45.4653 188.18 44.9918 186.522 44.9918C185.398 44.9918 184.377 45.3321 183.459 46.0128C182.542 46.6638 181.817 47.5516 181.284 48.6761C180.781 49.771 180.53 50.9548 180.53 52.2272V64.9225H176.757V42.2841Z" fill="#55585D"/>
<path d="M221.952 65.6328C220.294 65.6328 218.815 65.3073 217.513 64.6562C216.211 64.0052 215.204 63.1174 214.494 61.9929C213.784 60.8387 213.429 59.5367 213.429 58.0866C213.429 55.6896 214.331 53.8253 216.137 52.4936C217.942 51.1323 220.22 50.4517 222.972 50.4517C224.334 50.4517 225.591 50.5996 226.746 50.8956C227.929 51.1915 228.832 51.5318 229.453 51.9165V50.5405C229.453 48.8537 228.861 47.5072 227.678 46.501C226.494 45.4653 225 44.9474 223.194 44.9474C221.922 44.9474 220.753 45.2286 219.688 45.7908C218.622 46.3235 217.779 47.0781 217.158 48.0547L214.317 45.924C215.204 44.5627 216.418 43.4974 217.957 42.728C219.525 41.9586 221.256 41.5739 223.15 41.5739C226.228 41.5739 228.639 42.3877 230.385 44.0153C232.161 45.6133 233.049 47.8031 233.049 50.5849V64.9225H229.453V61.6821H229.276C228.625 62.7771 227.648 63.7092 226.346 64.4787C225.044 65.2481 223.579 65.6328 221.952 65.6328ZM222.307 62.3036C223.579 62.3036 224.763 61.9781 225.858 61.327C226.953 60.676 227.826 59.803 228.477 58.7081C229.128 57.6131 229.453 56.4146 229.453 55.1125C228.743 54.6391 227.87 54.2544 226.834 53.9584C225.799 53.6625 224.704 53.5145 223.55 53.5145C221.478 53.5145 219.91 53.9436 218.844 54.8018C217.809 55.66 217.291 56.7697 217.291 58.131C217.291 59.3739 217.764 60.3801 218.711 61.1495C219.658 61.9189 220.857 62.3036 222.307 62.3036Z" fill="#55585D"/>
<path d="M239.957 38.1115C239.218 38.1115 238.581 37.8452 238.049 37.3125C237.516 36.7798 237.25 36.1436 237.25 35.4038C237.25 34.6639 237.516 34.0425 238.049 33.5394C238.581 33.0067 239.218 32.7404 239.957 32.7404C240.697 32.7404 241.333 33.0067 241.866 33.5394C242.399 34.0425 242.665 34.6639 242.665 35.4038C242.665 36.1436 242.399 36.7798 241.866 37.3125C241.363 37.8452 240.727 38.1115 239.957 38.1115ZM238.093 42.2841H241.822V64.9225H238.093V42.2841Z" fill="#55585D"/>
<path d="M247.48 33.1399H251.253V64.9225H247.48V33.1399Z" fill="#55585D"/>
</svg>
